<svg width="900" height="620" viewBox="0 0 900 620" fill="none" xmlns="http://www.w3.org/2000/svg">
  <rect width="900" height="620" rx="40" fill="#F6EBDD"/>
  <circle cx="170" cy="150" r="84" fill="#E9C7B1"/>
  <circle cx="742" cy="126" r="70" fill="#D7E4DD"/>
  <circle cx="748" cy="476" r="96" fill="#EEDCA4"/>
  <rect x="132" y="318" width="636" height="188" rx="28" fill="#FFF9F0" stroke="#D3B28E" stroke-width="4"/>
  <path d="M212 415C278 352 353 332 446 332C540 332 616 352 690 415" stroke="#B45F3F" stroke-width="8" stroke-linecap="round"/>
  <path d="M236 448C298 392 366 374 448 374C528 374 594 392 664 448" stroke="#2F5648" stroke-width="6" stroke-linecap="round"/>
  <path d="M265 476C316 433 377 415 448 415C518 415 579 433 630 476" stroke="#496F81" stroke-width="6" stroke-linecap="round"/>
  <circle cx="447" cy="253" r="118" fill="#FFF8EE" stroke="#B45F3F" stroke-width="6"/>
  <circle cx="447" cy="253" r="72" fill="#E5EEE9" stroke="#2F5648" stroke-width="5"/>
  <path d="M447 164L466 220L526 220L478 255L496 312L447 277L397 312L416 255L367 220L427 220L447 164Z" fill="#C29C54"/>
  <path d="M255 215L294 255L255 295L216 255L255 215Z" fill="#B45F3F" fill-opacity="0.14" stroke="#B45F3F" stroke-width="4"/>
  <path d="M668 208L712 252L668 296L624 252L668 208Z" fill="#2F5648" fill-opacity="0.12" stroke="#2F5648" stroke-width="4"/>
  <path d="M144 95C176 72 210 72 242 95" stroke="#8F4326" stroke-width="6" stroke-linecap="round"/>
  <path d="M144 123C176 100 210 100 242 123" stroke="#8F4326" stroke-width="6" stroke-linecap="round"/>
  <path d="M670 474C702 451 736 451 768 474" stroke="#2F5648" stroke-width="6" stroke-linecap="round"/>
  <path d="M670 502C702 479 736 479 768 502" stroke="#2F5648" stroke-width="6" stroke-linecap="round"/>
</svg>
