<?xml version="1.0" encoding="UTF-8" standalone="no"?>
<!-- Created with Inkscape (http://www.inkscape.org/) -->

<svg
   width="297mm"
   height="210mm"
   viewBox="0 0 297 210"
   version="1.1"
   id="svg5"
   inkscape:version="1.1.2 (0a00cf5339, 2022-02-04)"
   sodipodi:docname="russia-blank-map.svg"
   xmlns:inkscape="http://www.inkscape.org/namespaces/inkscape"
   xmlns:sodipodi="http://sodipodi.sourceforge.net/DTD/sodipodi-0.dtd"
   xmlns="http://www.w3.org/2000/svg"
   xmlns:svg="http://www.w3.org/2000/svg">
  <sodipodi:namedview
     id="namedview7"
     pagecolor="#ffffff"
     bordercolor="#666666"
     borderopacity="1.0"
     inkscape:pageshadow="2"
     inkscape:pageopacity="0.0"
     inkscape:pagecheckerboard="0"
     inkscape:document-units="mm"
     showgrid="false"
     inkscape:zoom="1"
     inkscape:cx="480.5"
     inkscape:cy="445"
     inkscape:window-width="1918"
     inkscape:window-height="1059"
     inkscape:window-x="1680"
     inkscape:window-y="19"
     inkscape:window-maximized="1"
     inkscape:current-layer="layer1"
     inkscape:showpageshadow="false"
     showborder="false" />
  <defs
     id="defs2" />
  <g
     inkscape:label="Layer 1"
     inkscape:groupmode="layer"
     id="layer1">
    <path
       id="Ukraine"
       style="fill:none;stroke:#656565;stroke-width:0.158085;stroke-miterlimit:1;stroke-opacity:1"
       d="m 147.78805,79.435468 c -0.35403,-0.01019 -0.69507,-0.0041 -1.04696,0.01963 -1.15782,0.144174 -2.33382,0.346228 -3.41892,0.790133 -0.32818,0.315537 0.66719,0.535736 0.0594,0.612881 -0.47805,0.239024 -0.99267,0.09364 -1.50171,0.158131 -0.40976,-0.01138 -0.50039,0.24625 -0.51367,0.552936 -0.62222,0.30226 -1.27031,-0.108762 -1.91719,0 -1.05728,0.123307 -2.10938,0.403501 -3.1812,0.237197 -0.43884,0.0626 0.27554,-0.50156 -0.41497,-0.395325 -0.64562,0.05375 -1.33044,-0.116327 -1.95647,0.07906 -0.87452,0.285819 -1.77407,0.429448 -2.68717,0.514181 -1.52268,0.210571 -3.06395,0.182975 -4.58473,0.394808 -0.9422,0.293407 -1.8968,0.567502 -2.84531,0.829924 -0.32945,0.0449 -0.65086,0.272717 -0.63252,0.632521 0.33704,0.381934 1.02673,0.217794 1.24489,0.750858 -0.33957,0.364228 -0.88518,0.442209 -1.36322,0.513662 -0.20109,-0.02088 -1.05046,0.249704 -0.67232,-0.03927 0.1075,-0.233334 1.00172,-0.260004 0.51418,-0.395325 -0.60388,-0.111292 -1.25384,0.05635 -1.83813,0.237196 -0.32502,0.159981 -0.69978,0.18332 -0.9679,-0.0987 -1.78699,0.269377 -3.60296,0.12474 -5.39501,0.296105 -0.45592,0.01265 -0.52617,0.430734 -0.0987,0.593246 0.40469,0.156189 0.0671,0.640888 0.31625,0.849558 0.34716,0.21437 0.81673,0.12471 1.20562,0.27647 0.28012,0.16441 0.75288,-0.0423 0.88883,0.31626 0.34905,0.18275 0.80286,0.20183 1.16582,0.39532 0.47426,0.14228 0.45215,0.37204 0.0791,0.65216 -0.40533,0.25231 0.1189,0.48524 0.27699,0.73122 0.15302,0.267477 0.42238,0.571937 -0.0791,0.632007 -0.34842,0.14923 -0.73807,0.28512 -0.53382,-0.2372 -0.0968,-0.20235 -0.47647,-0.607247 -0.71107,-0.315737 -0.27443,0.120777 -0.38659,0.723007 -0.73122,0.473867 0.0398,-0.37687 0.11392,-0.733277 0.25683,-1.086747 0.32376,-0.1075 0.62574,-0.26067 0.92863,-0.41497 -0.0569,-0.43631 -0.53079,0.0151 -0.81029,-0.0987 -0.92132,0.0481 -1.8613,-0.11401 -2.66754,-0.57309 -0.87073,-0.30226 -1.79931,-0.52429 -2.72696,-0.37569 -0.40722,-0.0202 -0.6584,0.12347 -0.47439,0.55346 -0.33703,0.10497 -0.68017,0.10432 -1.02732,0.0594 -0.32819,-0.0632 -0.64343,-0.16826 -0.98806,-0.0987 -0.43442,-0.0948 -0.66467,0.32401 -0.17776,0.47388 0.61526,0.24787 1.32289,0.1442 1.9761,0.21755 0.47173,-0.0474 0.70281,0.39422 0.88936,0.75086 -0.39395,0.0392 -0.79647,0.0536 -1.12655,-0.1974 -0.55646,-0.13595 -1.16791,-0.0709 -1.73891,-0.17777 -0.48691,-0.1037 -1.0445,0.0132 -1.48208,-0.23719 -0.33515,-0.12015 -0.50723,-0.48653 -0.31626,-0.81029 0.19476,-0.2757 0.6129,-0.50429 0.49402,-0.90899 -0.0506,-0.3579 -0.57888,-0.14937 -0.82992,-0.27647 -0.0626,0.14354 0.10551,0.6137 -0.11834,0.84956 -0.46098,0.38763 -1.10903,0.48841 -1.69964,0.5333 -0.24471,0.007 -0.79952,0.25753 -0.67179,0.49403 0.5495,0.24409 1.00722,0.63139 1.36322,1.106907 -0.13974,0.37751 -0.56057,0.54919 -0.71106,0.90899 -0.30922,0.38067 0.28019,0.68395 0.23719,1.08675 0.60325,-0.0961 1.20469,0.19357 1.79782,0.0393 0.67155,-0.22132 1.36083,0.0132 2.03554,0.0992 0.46603,0.17263 1.04135,0.0451 1.42265,0.3948 0.12773,0.29404 0.40863,0.58269 0.47439,0.82994 -0.16314,0.24598 -0.7647,0.11331 -0.71159,0.53382 0.40217,0.10054 0.83257,0.003 1.22525,0.17776 0.57354,0.12521 -0.0811,0.41236 -0.37517,0.37569 -0.53243,-0.0468 -1.17229,0.0645 -1.58078,-0.33641 0.12331,-0.356 0.27263,-0.71241 0.11834,-1.08676 -0.21752,-0.23081 -0.59155,-0.36192 -0.90899,-0.45425 -0.84797,-0.0803 -1.71893,-0.0397 -2.5492,0.17777 -0.38825,0.20236 -0.20617,0.56556 0.11886,0.73123 0.18591,0.27697 0.18658,0.66683 -0.17828,0.79014 -0.22449,0.26875 -0.64848,0.23539 -0.84957,0.49402 -0.15808,0.3813 -0.51753,0.55292 -0.88935,0.6718 -0.37687,0.2346 -0.93508,0.11208 -1.20509,0.49402 -0.22006,0.30605 -0.58843,0.28078 -0.92863,0.27699 -0.52294,-0.11256 -1.03503,-0.0368 -1.56114,-0.0791 -0.722137,-0.0923 -1.551887,-0.0748 -2.153877,-0.51366 -0.1878,-0.30985 0.56313,-0.1885 0.79014,-0.23719 0.59946,-0.0462 1.176787,0.30046 1.758547,0.25683 0.21057,-0.11509 0.90385,-0.0438 0.73122,-0.3359 -0.29973,-0.32945 0.41373,-0.37704 0.63252,-0.49402 0.55962,-0.34464 1.3474,-0.50377 1.62057,-1.16583 0.0101,-0.30036 0.70769,-0.54977 0.25683,-0.75086 -0.43315,-0.0702 -0.91971,-0.22785 -1.02784,-0.71159 -0.0322,-0.48121 0.0758,-0.98945 -0.0987,-1.46244 -0.15556,-0.33957 0.62167,-0.33486 0.37569,-0.73071 -0.0582,-0.555827 -0.63144,-0.827457 -1.06712,-1.067107 -0.52927,-0.10877 0.0875,-0.47627 0.31574,-0.59325 0.46983,-0.22132 0.84449,-0.64224 0.90899,-1.16582 -0.172,-0.40723 -0.73837,-0.28785 -1.10639,-0.27647 -0.94788,-0.10813 -1.89869,0.12586 -2.845307,0.0791 -0.34336,0.002 -0.73257,-0.15053 -1.04748,-0.0791 -0.4654,0.16188 -0.4669,0.70791 -0.73122,1.04748 -0.5318,0.7 -1.4039,0.93625 -2.2133,1.14618 -0.34842,-0.0177 -0.60223,0.22472 -0.73122,0.53331 0.18022,0.399637 0.74207,0.033 0.98805,0.335887 0.0702,0.23081 0.17195,0.68505 -0.15813,0.79065 -0.23776,0.0746 -0.79449,0.25439 -0.55294,0.57309 0.344,0.12963 0.78262,0.0595 1.16582,0.11834 0.35285,0.0373 0.71534,0.19313 0.55346,0.61237 0.29024,0.50145 0.91867,0.45733 1.42265,0.41496 -0.29341,0.34146 -0.61943,0.70151 -1.00769,0.92915 -0.52927,-0.0784 -0.99699,-0.40173 -1.50223,-0.5731 -0.85367,-0.41987 -1.78739,-0.61177 -2.70682,-0.82992 -0.82014,-0.0322 -1.58736,-0.31943 -2.39106,-0.45476 -0.81509,-0.10876 -1.62782,-0.28906 -2.4505,-0.31625 -0.54887,0.036 -1.14576,-0.15111 -1.65985,0.0791 -0.3187,0.17958 -0.7639,0.28973 -0.21755,0.53382 0.22953,0.19476 0.7475,0.39173 0.37568,0.71106 -0.35537,0.40345 -0.90031,0.15116 -1.34359,0.27699 0.0329,0.43253 -0.46179,0.4713 -0.77101,0.37518 -0.504606,-0.003 -0.4661,-0.38977 -0.0393,-0.53331 -0.655103,-0.33957 -1.445546,-0.24093 -2.094957,0.0594 -0.512197,0.34906 -1.166644,0.33278 -1.738914,0.15761 -0.692411,-0.0689 -1.435547,-0.0487 -2.094446,0.19793 -0.125836,0.23587 -0.470697,0.66795 -0.731221,0.37517 -0.343361,-0.12077 -0.769308,0.0569 -1.146183,0.0791 -0.214363,0.086 -0.916533,-0.0413 -0.552937,-0.31574 0.430622,0.0411 0.629473,-0.10509 0.632002,-0.53383 0.157485,-0.30226 -0.554236,-0.17264 -0.770496,-0.1385 -0.447699,-0.0525 -0.385297,0.43775 -0.711583,0.55347 -0.277599,0.16378 -0.711023,0.20105 -0.750859,-0.21757 -1.137584,0.40344 -2.366237,0.45682 -3.517098,0.8103 -0.778412,0.12394 -1.501309,0.48642 -2.292368,0.55345 -0.376243,0.2308 -0.344297,0.86221 -0.770496,1.04748 -0.744265,-0.0114 -1.500053,0.2543 -2.232938,0.0589 -0.395846,0.004 -0.609843,-0.34677 -0.94878,-0.47387 -0.355375,-0.0582 -0.829762,-0.26131 -0.335896,-0.55345 0.677238,-0.30352 1.462677,-0.17589 2.193665,-0.25683 -0.214995,-0.28961 -0.533286,-0.45103 -0.790649,-0.69195 -0.283289,-0.40407 -0.790196,-0.35811 -1.225248,-0.31575 -0.573534,0.0974 -1.152704,-0.0366 -1.719274,-0.0992 -0.4907,0.0892 0.0651,0.44216 0.27698,0.55345 0.22132,0.31238 0.0726,0.61865 -0.23719,0.79065 -0.3225,0.19097 -0.57044,0.52385 -0.0196,0.55294 0.38068,-0.024 0.60353,0.3201 0.55294,0.67231 -0.13152,0.301 -0.42763,0.5631 -0.49402,0.90899 -0.5533,-0.0145 -1.01421,-0.41496 -1.58079,-0.41496 -0.39837,0.002 -0.86987,-0.2876 -1.22524,-0.0202 -0.54635,0.43759 -1.22487,0.59401 -1.89705,0.73123 -0.39647,0.17706 -0.93129,0.14437 -1.20509,0.51366 0.12963,0.41861 0.53272,0.59021 0.82992,0.86972 0.25737,0.34336 -0.23029,0.62549 -0.53382,0.39532 -0.37118,0.0341 -0.74599,0.11835 -1.12602,0.0393 -0.96938,-0.21499 -1.97959,-0.31643 -2.8851,-0.75085 -0.36549,-0.20046 -0.61496,0.14563 -0.84956,0.37517 0.3598,0.31364 0.72637,0.69199 1.24489,0.65215 0.31617,-0.14101 0.83435,-0.004 0.82992,0.39533 -0.086,0.41165 -0.60227,0.21826 -0.88935,0.39532 -0.45466,-0.129 -0.93445,-0.15942 -1.40302,-0.17776 -0.40217,0.0253 -0.41827,-0.56486 -0.82992,-0.49403 -0.46098,-0.13659 -1.09067,0.0801 -1.42265,-0.3359 0.008,-0.46414 -0.49401,-0.6732 -0.61289,-1.08675 -0.33577,-0.39838 0.39286,-0.20247 0.49403,-0.53382 0.0772,-0.46793 -0.46763,-0.68 -0.84956,-0.73122 -0.69052,-0.0392 -1.24696,-0.5005 -1.8774,-0.71107 -0.23777,-0.1486 -0.62633,-0.40424 -0.7705,-0.49403 0.58997,-0.13975 1.24443,-0.034 1.67948,0.41497 0.76893,0.0443 1.52278,0.18164 2.27273,0.35553 1.09838,0.33008 2.2447,0.39032 3.37913,0.49403 1.2065,0.22321 2.45663,0.15421 3.63595,-0.17777 0.6159,-0.2131 1.30391,-0.46072 1.69912,-1.00769 -0.0569,-0.31175 -0.56617,-0.39796 -0.39481,-0.79065 -0.11825,-0.32502 -0.59658,-0.3037 -0.88935,-0.4346 -1.02945,-0.40912 -2.23573,-0.23611 -3.18172,-0.86971 -0.87263,-0.58177 -1.94364,-0.6409 -2.944,-0.84958 -0.74996,-0.23459 -1.51965,-0.1563 -2.29237,-0.1974 -0.39584,0.0379 -0.84138,-0.14477 -1.20561,0.0196 -0.42746,0.33578 -0.13494,-0.48825 -0.67179,-0.31626 -0.50461,-0.005 -1.20507,-0.13109 -1.32395,-0.71158 -0.33641,0.14164 -0.69464,0.229 -1.04749,0.31626 -0.39268,-0.0651 -0.63204,0.25875 -0.98805,0.3359 -0.72593,-0.0569 -1.41842,0.22153 -1.99574,0.65215 -0.19034,0.25737 -0.74197,0.19492 -0.73122,0.55346 -0.24725,0.25105 -0.18146,0.71163 0.21755,0.73123 0.57354,0.0917 1.1046,0.35189 1.56115,0.71107 -0.37372,0.38509 -0.92681,0.53021 -1.30432,0.90898 0.50208,0.48628 1.01604,0.9724 1.34359,1.60094 -0.009,0.37119 -0.54461,0.61445 -0.49402,1.04697 0.21309,0.48689 0.69017,0.82437 1.02784,1.24488 0.28392,0.33894 -0.24548,0.55033 -0.47439,0.71158 0.528,0.47868 1.36897,0.41951 1.85777,0.948778 0.28835,0.45275 -0.28411,0.82248 -0.57309,1.1064 -1.09648,0.61021 -2.17189,1.28433 -3.26079,1.91668 -0.48121,0.22764 0.1321,0.27713 -0.23719,0.63251 0.24788,0.35918 0.72371,0.32646 1.10691,0.29611 0.47425,-0.10497 0.97427,0.0564 1.26452,0.45475 -0.35474,0.23965 -0.73075,5.3e-4 -1.08676,-0.0791 -0.32375,-0.13785 -0.61236,0.0235 -0.81028,0.27647 -0.36803,-0.0341 -0.59214,-0.0961 -0.75086,0.13849 -0.27444,-0.29594 -0.71461,0.0253 -0.2372,0.17777 0.33135,0.30226 -0.32261,0.12464 -0.33589,0.37568 -0.0708,0.34336 -0.65091,0.26462 -0.59273,0.63201 0.21626,0.30479 9e-5,0.54973 0.11834,0.79065 0.14607,0.12963 0.57171,0.48704 0.17777,0.47439 -0.18844,0.031 -0.60779,0.41623 -0.25684,0.41496 0.0866,0.11635 0.44912,0.23786 0.55346,0.39532 -0.22448,0.20614 -0.0841,0.30952 -0.29662,0.57258 0.37624,-0.14797 0.36937,0.13469 0.51418,0.33641 0.24914,0.0677 0.33781,0.40309 0.21704,0.632 0.19982,0.29088 0.5674,-0.13397 0.77101,0.17777 0.16947,0.20615 0.54988,-0.11384 0.80977,0.0594 0.41861,-0.0544 -0.15109,0.44848 0.35605,0.41496 0.2112,-0.15619 0.53972,-0.24669 0.79013,-0.17777 0.34526,-0.0917 0.66293,0.11515 0.92914,0.29663 0.50398,-0.0695 -0.15157,0.46562 0.23668,0.59273 0.29214,0.2093 -0.5313,0.47635 -0.0589,0.57309 0.28961,0.1916 0.31194,0.20439 0.37517,0.41496 0.18338,0.21057 0.37901,0.49152 0.73122,0.51366 0.47426,-0.0152 -0.0745,0.59083 0.37569,0.45424 0.17706,-0.0341 0.87229,0.0651 0.632,0.19792 0.10497,0.18654 0.75758,0.37959 0.21756,0.4346 -0.28771,0.25231 -0.66555,0.36685 -1.04748,0.31626 -0.2093,-0.18085 -0.75217,-0.19596 -0.71107,0.17776 0.37561,0.19539 0.23858,0.36572 0.4346,0.59273 -0.17452,0.28582 0.1316,0.45293 0.2372,0.63252 0.0904,0.0183 0.20496,0.0575 0.31626,0.0594 0.006,0.003 0.01,0.002 0.0155,0.004 -0.12857,-0.005 -0.26101,-0.0332 -0.37621,-0.0651 -0.35158,-0.0835 -0.62314,0.16054 -0.93172,0.0568 -0.29341,0.0677 -0.49342,0.3407 -0.71727,0.5519 -0.26997,0.17263 0.3411,0.69775 -0.27544,0.51057 -0.17263,-0.32945 -0.57092,-0.20951 -0.85421,-0.15762 -0.20235,-0.21559 -0.59996,0.25725 -0.74414,-0.0475 -0.0961,-0.35665 -0.55589,-0.15485 -0.72915,0.0393 -0.22891,-0.22511 -0.50414,-0.0505 -0.74569,-0.27182 -0.24282,0.23775 -0.54448,-0.11391 -0.66146,0.22376 0.0297,-0.31933 -0.46443,-0.18341 -0.63769,-0.20361 -0.0645,-0.25542 -0.34937,-0.17127 -0.65732,-0.22117 -0.31554,-0.0828 -0.65993,-0.0333 -0.9369,-0.16485 -0.30289,-0.0765 -0.64753,-0.0775 -0.97255,-0.0351 -0.33261,-0.0588 -0.65137,0.0238 -0.98082,0.0248 -0.3794,-0.12331 -0.56901,0.12232 -0.81183,0.30696 -0.21626,0.29784 -0.64948,-0.11214 -0.7829,0.1819 0.11508,0.0809 0.11759,0.14386 0.0708,0.26148 0.21689,0.21816 0.48827,0.52408 0.69504,0.65371 -0.52674,0.0253 0.33995,0.45487 -0.17983,0.65216 -0.43505,-0.0297 -0.75121,0.3528 -1.08572,0.57981 -0.24029,0.27632 -0.76052,0.40873 -0.74724,0.82734 -0.0209,0.38826 0.47089,0.62312 -0.17157,0.51056 -0.20994,0.29404 -0.41896,0.58951 -0.6289,0.88418 0.12141,0.0841 0.58289,0.25927 0.84594,0.35347 0.2991,0.26262 0.59702,0.1912 0.95808,0.2589 0.39332,-0.12077 0.81766,0.12895 1.23817,0.0879 0.38699,-0.0278 0.51151,0.0509 0.77773,0.1881 0.27191,0.27696 0.50688,-0.26495 0.80977,-0.18655 0.39205,-0.0974 0.90634,0.0518 1.20354,-0.25425 0.1056,-0.25676 0.5501,-0.21497 0.71831,-0.28267 0.0771,-0.25231 0.55846,0.11354 0.7431,-0.15141 0.25041,0.009 0.48681,-0.0673 0.71572,0.0522 0.22512,0.0986 0.415,0.30724 0.68058,0.22634 0.0152,0.20366 0.14726,0.14781 0.45837,0.11111 0.29404,-0.004 0.3501,0.47545 0.67386,0.25476 0.18211,0.19097 0.1265,0.28432 0.0196,0.54674 -0.0727,0.17326 0.34902,0.45878 0.52038,0.34623 0.18844,0.12773 -0.10284,0.37827 0.0951,0.44597 -0.0487,0.24598 0.55522,0.16383 0.51728,0.49454 -0.258,0.24345 0.26581,0.28975 0.14314,0.41497 -0.33324,0.13219 -0.36122,-0.15235 -0.55914,-0.0398 -0.14607,0.14097 -0.46503,-0.27767 -0.51625,0.0145 -0.0974,-0.16756 -0.31284,-0.29079 -0.53226,-0.0315 0.13278,0.21436 0.15238,0.50216 -0.0367,0.62167 -0.26116,0.008 -0.24317,0.34756 -0.53847,0.39946 0.25736,0.36741 -0.54438,0.2007 -0.30283,0.2899 0.0531,0.25863 0.67144,0.42237 0.73278,0.1726 0.3187,0.0974 0.57692,-0.23314 0.88108,-0.13384 0.4869,0.24281 -0.10881,-0.32146 0.38189,-0.44287 0.55013,-0.0417 0.91635,-0.46346 1.29449,-0.8201 0.19476,-0.30226 0.50849,-0.4156 0.85628,-0.4346 0.33008,-0.12584 0.76266,0.0703 0.9865,-0.25476 0.308,0.0658 0.47437,0.49183 0.005,0.59996 0.29025,0.46987 0.8819,0.40452 1.35806,0.37672 0.31237,0.0323 0.79527,-0.1781 0.9679,0.15451 0.18401,0.35408 -0.54368,0.2383 -0.74983,0.42168 -0.20677,0.13848 -0.86558,0.27584 -0.66766,0.52245 0.39648,-0.1056 0.81257,-2.5e-4 1.17047,0.16795 0.3402,0.23903 0.15535,0.62123 -0.016,0.90072 0.40344,0.11066 0.95487,0.31204 1.24954,-0.10594 0.3402,-0.40865 0.95582,-0.0787 1.31878,-0.41134 0.30352,-0.34905 0.7309,-0.0602 1.10019,-0.10645 0.35791,0.0126 0.55694,-0.20938 0.72451,-0.48318 -0.49766,-0.14289 -1.03577,-0.0921 -1.52963,0.0527 -0.26242,0.10371 -0.73157,0.0403 -0.57981,-0.31316 -0.31743,-0.26875 -0.77855,-0.41522 -1.1529,-0.63717 -0.44832,-0.14038 -0.60419,-0.333 -0.0325,-0.339 0.41924,-0.0929 1.00771,0.2136 1.28467,-0.22841 0.12837,-0.54887 0.41118,0.0582 0.75138,-0.12712 0.63487,-0.48314 1.48537,-0.27538 2.20245,-0.52452 0.26938,-0.35284 0.70814,-0.25314 1.09451,-0.31574 0.25455,0.0505 0.32721,-0.0657 0.35553,-0.22944 0.002,0.0123 -0.002,0.0203 0,0.0331 -0.0392,0.31743 0.57253,-0.004 0.81029,0.0398 0.24218,-0.11698 0.83807,-0.0226 0.59272,0.25683 -0.57669,0.14101 -1.07686,0.52192 -1.67948,0.5333 -0.56974,-0.0474 -0.20602,0.33087 0.13798,0.41497 0.33704,0.0942 0.66971,0.56793 0.0987,0.51418 -0.4047,-0.0968 -0.42139,0.41001 -0.67179,0.61236 0.0658,0.43568 -0.36891,0.38012 -0.6718,0.37569 -0.61274,0.0493 -0.14483,0.32719 0.11886,0.55294 0.1252,0.43758 0.47775,0.29974 0.79013,0.27699 0.22132,0.27949 0.52322,0.46309 0.88935,0.45423 0.79928,0.28076 1.42665,0.91098 2.13424,1.36374 0.14607,-0.0405 0.40813,-0.35668 0.75085,-0.15813 0.44834,-0.0765 0.78009,0.34093 1.22525,0.25683 0.29088,0.16568 0.65421,0.27004 1.00769,0.21756 0.31681,-0.12773 0.64411,0.005 0.94827,0.0589 0.35094,-0.14734 0.46625,0.33021 0.79065,0.3359 0.19096,0.0658 0.86209,0.12406 0.65215,0.3359 0.0803,0.24535 0.54413,0.15555 0.71107,0 0.22195,-0.31364 0.6332,0.11122 0.790653,-0.0791 0.243451,-0.0601 0.554869,0.10317 0.770496,0.25683 0.355375,-0.0689 0.693158,0.0501 0.395325,0.41496 0.261789,0.27317 0.625721,0.40038 0.988052,0.39533 0.204247,0.25104 0.404878,0.11773 0.632521,0.3359 0.220686,0.19413 0.663582,0.24675 0.612364,0.61288 0.319334,-0.0291 0.719908,0.32511 0.968418,0.0393 0.214363,-0.37371 0.764183,-0.34622 0.908986,-0.79013 -0.237127,-0.12899 -0.411866,-0.38524 -0.652155,-0.61288 -0.108762,-0.31617 -0.495313,-0.39543 -0.57309,-0.65216 -0.04237,-0.30605 -0.600758,-0.40307 -0.217559,-0.75086 -0.32629,-0.22827 0.172648,-0.64275 0.05943,-0.82992 -0.111988,0.12616 -0.219329,0.344 -0.256831,0.39532 0.0019,-0.0324 0.0055,-0.10997 0.03927,-0.25683 0.01455,-0.34779 -0.345493,-0.54788 -0.5333,-0.75086 -0.256098,-0.0411 -0.72858,-0.32019 -0.335896,-0.59272 0.314904,-0.14482 0.511844,-0.40233 0.69143,-0.69195 0.211201,-0.2719 0.29092,-0.51753 0.35605,-0.75086 0.283289,0.18654 0.610523,5.3e-4 0.908989,-0.0393 0.214995,-0.33198 0.625737,-0.13411 0.730705,-0.29662 0.0019,-0.27697 0.562915,-0.18421 0.672309,-0.51366 -0.317434,-0.0968 -0.685726,-0.21385 -0.94878,-0.39533 -0.119509,-0.43569 0.521883,-0.0419 0.711587,-0.11834 -0.03099,-0.24724 -0.434012,-0.54154 -0.592731,-0.81028 -0.133424,-0.36044 -0.566798,-0.36634 -0.790649,-0.65216 -0.30036,-0.11635 -0.655486,0.0316 -0.948261,-0.15813 -0.03415,0.46287 -0.494567,-0.17717 -0.375687,-0.39532 -0.123309,-0.33072 -0.637117,-0.23163 -0.928627,-0.37517 0.202981,-0.28012 0.265176,-0.68883 0.592728,-0.85008 0.557093,-0.20677 -0.157478,-0.35058 -0.07906,-0.61237 0.07715,-0.31996 -0.02252,-0.81026 0.454234,-0.73122 0.392684,0.024 0.274018,-0.65221 0.652158,-0.61236 0.555826,0.0152 0.704853,0.87669 1.304311,0.75085 0.349687,0.0354 0.536983,-0.36377 0.335899,-0.63252 -0.234598,-0.39142 0.230341,-0.45107 0.494025,-0.59272 0.373716,-0.0563 0.454946,-0.50856 0.829924,-0.55346 0.588079,-0.0506 1.071081,-0.40818 1.561145,-0.71107 0.285186,0.0152 0.706675,-0.0702 0.928626,0.15813 0.43252,0.12646 0.849625,-0.42559 1.284677,-0.21756 0.15935,0.38194 0.556141,0.33204 0.908986,0.29663 0.268113,0.009 0.895689,-0.0687 0.829924,0.31574 0.383831,0.15303 0.840727,0.26067 1.126548,0.55345 -0.151762,0.4711 0.555999,0.49131 0.296106,0.0398 -0.274439,-0.42114 0.479539,-0.25472 0.592728,-0.0202 0.228277,0.2561 0.639611,0.20559 0.908989,0.37569 0.491961,-0.0215 0.703477,-0.49912 1.106908,-0.71158 0.335143,0.0594 0.699109,-0.0189 1.007692,0.0987 0.224481,0.23207 0.783725,0.3572 0.810287,-0.0791 0.329448,-0.0221 0.661765,-0.11834 0.988052,-0.0393 0.308581,0.0961 0.372705,0.55227 0.81029,0.5333 0.30226,0.0519 0.63265,0.17642 0.90899,0.19792 0.32944,-0.0563 0.5081,-0.64561 0.79013,-0.19792 0.37814,0.12837 0.82051,0.0434 1.20561,-0.0786 0.41671,0.007 0.58071,-0.31001 0.59273,-0.69194 -0.086,-0.36993 -0.6244,-0.18224 -0.88936,-0.3359 -0.12457,-0.33198 -0.71108,-0.0817 -0.79013,-0.35553 -0.0999,-0.11193 -0.78541,-0.31507 -0.15813,-0.35554 0.31997,-0.24535 0.75163,-0.21635 1.02733,-0.51418 -0.23966,-0.21563 -0.53372,-0.52892 -0.0791,-0.69143 0.45908,-0.41481 1.08178,-0.0222 1.60094,-0.17777 0.15998,-0.2991 -0.4909,-0.2808 -0.71159,-0.35605 -0.42177,0.0746 -0.63305,-0.22337 -0.37568,-0.35553 -0.2814,-0.13026 -0.20304,-0.70087 0.0992,-0.73122 0.47046,0.0379 0.96107,0.11514 1.44228,0.0791 0.38194,-0.10054 0.76555,-0.26194 1.16582,-0.35553 0.80308,-0.0506 1.607,-0.1518 2.41071,-0.21756 0.39078,0.13595 0.48458,-0.28601 0.85008,-0.37517 0.86251,0.0639 1.67222,-0.3099 2.52904,-0.29662 0.43695,-0.0702 1.04189,0.10547 1.30431,-0.3359 -0.036,-0.37119 0.69146,-0.0407 0.7705,-0.4346 0.46287,-0.0626 0.93189,0.0431 1.38338,0.13798 0.30415,0.14227 0.602337,0.17775 0.928617,0.0791 0.30479,-0.0715 0.77482,-0.0138 0.71159,0.39533 0.0828,0.31238 0.64446,0.31636 0.25683,0.71158 -0.0354,0.26685 -0.2434,0.42381 0.29662,0.41496 0.28519,-0.0664 0.58595,-0.0601 0.88884,-0.0398 0.30605,-0.35348 0.50543,0.14174 0.77101,0.25683 0.20172,-0.15303 0.58391,-0.23336 0.81029,0.0594 0.24155,0.2327 0.73951,-0.26254 0.77049,0.0202 -0.098,0.16947 -0.77659,0.38351 -0.37568,0.57258 0.38383,-0.002 0.82877,-0.17895 1.22524,-0.0196 0.3187,0.172 0.52707,-0.29293 0.84956,-0.35553 0.4262,-0.12457 0.87054,-0.20311 1.24489,-0.47439 0.33577,-0.12394 0.68322,-0.24294 1.02784,-0.3359 0.47679,-0.20866 0.52044,0.34918 0.0594,0.3359 -0.2093,0.37055 0.43408,0.39165 0.63201,0.59273 0.97317,0.29783 1.77829,0.96551 2.37143,1.7787 0.46413,0.66459 1.07361,1.21353 1.56114,1.85725 0.19919,0.28203 0.39165,0.65897 0.73122,0.29663 0.28518,-0.16883 0.36074,-0.60083 0.77049,-0.45476 0.46035,-0.15872 0.35306,0.49646 0.65216,0.43512 0.28076,0.0835 0.46064,0.40863 0.82992,0.27647 0.65954,0.0904 1.25332,-0.22714 1.89704,-0.27647 0.40344,-0.11129 0.72444,0.17665 1.02733,0.39481 0.37688,0.10749 0.34613,0.66978 0.73122,0.67231 0.52991,-0.0285 0.7965,0.50055 1.14619,0.80977 0.35664,0.11698 0.78262,0.0664 1.16582,0.11885 0.17642,-0.0613 0.76217,-0.54073 0.71158,-0.17776 0.19476,0.14165 0.34737,0.59024 0.65216,0.55293 0.25736,0.0803 0.60866,0.14153 0.92862,0.0202 0.46288,-0.24408 0.92243,-0.48128 1.46245,-0.43512 0.8543,0.0626 1.44248,-0.63276 2.15387,-0.9679 0.75058,-0.27191 1.53107,-0.53832 2.312,-0.71158 0.78537,0.0361 1.55959,0.23276 2.35128,0.23719 0.34589,0.009 0.6895,0.016 0.86972,0.35553 0.21879,0.2776 0.46952,0.51616 0.84956,0.49403 0.82141,-0.0202 1.62655,0.0576 2.45049,0.0987 0.42683,0.20931 0.91739,0.26421 1.34359,0.0202 0.3383,-0.18273 0.83368,-0.41122 0.81029,-0.85007 -0.25041,-0.2327 -0.45738,-0.49163 -0.57309,-0.82993 0.15302,-0.40028 0.59281,-0.65039 0.90898,-0.92862 0.28393,-0.19919 0.5397,-0.53378 0.90899,-0.31626 1.09521,0.15999 2.20932,0.27718 3.26027,0.65216 0.29404,0.17705 0.74264,0.0602 0.94878,0.33589 -0.0702,0.4439 0.19819,0.84774 0.55294,1.08676 0.44327,0.22132 0.95147,0.36243 1.4428,0.45475 0.72782,-0.0386 1.45015,-0.35546 2.19315,-0.37569 0.66839,0.0721 1.37028,-0.0657 2.0159,0.15813 0.67407,0.29214 1.24831,0.77869 1.99574,0.88935 0.42303,0.22069 0.87439,0.32893 1.34359,0.39533 1.09332,0.3617 2.25545,0.20552 3.37912,0.13849 0.84355,-0.17705 1.8441,-0.0395 2.52956,-0.65215 0.54318,-0.4338 1.20973,-0.75901 1.91668,-0.71159 0.48754,-0.0139 0.7668,0.43968 1.22525,0.51366 0.60641,0.26559 1.23752,-0.34218 1.83761,-0.0393 0.45844,0.0987 0.83385,0.51489 1.30432,0.49403 0.76577,-0.19476 1.5279,-0.39542 2.25257,-0.71159 0.40912,-0.25862 -0.26061,-0.51696 -0.11834,-0.79013 0.5571,-0.57164 0.95485,-1.40177 1.75855,-1.68 0.3832,-0.0778 0.55473,-0.32155 0.55346,-0.71107 -0.15998,-0.46035 -0.71991,-0.36432 -1.10691,-0.31626 -0.28012,-0.0651 0.32958,-0.40869 0.47439,-0.51366 0.59502,-0.52421 1.40644,-0.5225 2.15387,-0.5731 1.04716,-0.0974 2.20349,-0.4204 3.18172,0.11834 0.47931,0.30226 1.03124,0.22137 1.56114,0.15814 0.57164,-0.0525 0.94706,0.45047 1.24489,0.86971 0.40028,0.8056 0.73837,1.65822 1.24488,2.4107 0.32439,0.48311 0.41451,1.12425 0.84956,1.52136 0.59061,0.35285 1.32357,0.43141 1.99575,0.55345 0.65321,0.16947 1.31776,0.3588 1.93683,0.61237 0.28771,0.51283 0.33981,1.17476 0.67179,1.68 0.60768,-0.0329 1.22551,-0.0366 1.83762,-0.0594 0.87832,-0.30099 1.78095,-0.5567 2.70733,-0.67179 0.27634,-0.009 0.72434,-0.12567 0.71106,0.2961 0.18717,0.36676 -0.0413,0.64458 -0.37517,0.79065 -0.49259,0.16377 -0.50738,0.74595 -0.67179,1.16582 -0.40723,0.83026 -0.81689,1.71378 -1.56115,2.29237 -0.48564,0.0651 -0.96985,-0.30554 -1.46244,-0.3359 -0.3832,0.13596 -0.73394,0.41888 -1.10639,0.61237 -0.129,0.45213 0.25688,0.83193 0.21704,1.28468 0.0714,0.33261 -0.10244,0.65864 0,0.94826 -0.13469,0.38256 -0.55235,0.54275 -0.90899,0.65215 -0.55773,0.0506 -0.22328,0.36199 -0.0791,0.69144 0.52357,-0.39458 1.0552,-0.78012 1.52187,-1.24489 0.35348,-0.26811 0.61985,-0.19038 0.21704,0.17828 0.29404,0.0462 0.68311,-0.42112 0.83044,-0.0398 0.15113,0.44011 0.75723,0.0432 0.90899,0.45475 0.21247,0.19286 0.61369,-0.16065 0.90899,-0.15812 0.93966,-0.15745 1.81386,-0.63789 2.39055,-1.40302 0.3225,-0.57986 1.17475,-0.57584 1.40302,-1.22525 0.5729,-0.65005 1.30579,-1.14574 1.95647,-1.71927 0.4888,-0.33767 0.66618,-0.93892 1.04748,-1.36323 0.30416,-0.31237 0.83624,-0.44034 0.88935,-0.92914 0.35411,-0.53243 0.95535,-0.83769 1.42265,-1.26452 0.19223,-0.37371 0.25559,-0.8383 0.39533,-1.24489 -0.0126,-0.41229 0.2467,-0.83003 0.11834,-1.22525 -0.26179,-0.43948 0.014,-0.91289 0.23719,-1.30431 0.17452,-0.53559 0.80153,-0.82317 0.92863,-1.34358 -0.41102,-0.18213 -0.43512,-0.30183 -0.2372,-0.71159 -0.34716,-0.33324 -0.30282,-0.29936 0.0791,-0.61237 -0.36423,-0.24661 -0.78267,-0.38724 -1.12603,-0.67179 -0.40722,-0.65321 -1.25713,-0.80844 -1.9761,-0.77049 -0.27697,0.0613 -0.84501,-0.20728 -0.71159,0.27646 -0.0594,0.46667 -0.60493,0.65597 -1.02733,0.59273 -0.22575,-0.0487 -0.93039,0.14853 -0.79065,-0.17776 0.4357,-0.22891 0.35466,-0.38455 -0.11833,-0.37569 -0.27128,0.20235 -0.63392,0.36933 -0.96842,0.21756 -0.0487,-0.36549 0.12974,-0.71364 0.1974,-1.06712 -0.60009,-0.074 -1.19508,0.16122 -1.79834,0.0594 -0.3364,0.0348 -0.62495,-0.35869 -0.31574,-0.61289 1.08889,-0.67155 2.35729,-1.0067 3.39876,-1.75855 0.9719,-0.71138 1.91579,-1.48286 3.06286,-1.89704 0.39142,-0.1328 0.75851,-0.31262 0.98805,-0.67179 0.32123,-0.52421 0.9617,-0.60727 1.50172,-0.79065 0.55583,-0.58492 1.31667,-0.91476 2.09445,-1.08676 0.93397,0.0322 1.87079,-0.11191 2.80603,-0.0196 0.29846,0.0449 0.77611,-0.23197 0.92914,0.11834 -0.0999,0.37055 0.61362,0.45208 0.67179,0.17828 0.0373,-0.41482 0.57259,-0.2726 0.84957,-0.23719 0.78093,0.20867 1.60005,-0.22247 2.35127,0.13797 0.26938,0.16377 0.80139,-0.10328 0.65216,-0.45423 0.3187,-0.14417 0.67499,-0.21499 1.02784,-0.19792 0.42493,-0.0955 0.71497,0.28076 1.1064,0.33641 0.57733,-0.0772 1.17233,-0.18655 1.73891,0.0196 0.22069,0.13848 0.79424,0.51107 0.21756,0.47439 -0.28267,0.1094 -0.80652,-0.0421 -0.88936,0.31575 0.43948,0.26874 0.96101,0.055 1.40302,-0.0987 0.32249,-0.28645 0.62889,0.32997 0.92862,0.0202 0.35853,-0.29276 0.81296,-0.22575 1.22525,-0.13849 0.59124,0.12268 1.11535,-0.17958 1.69964,-0.19792 0.50524,-0.0127 -0.15188,-0.41495 -0.39533,-0.27647 -0.2681,-0.007 -0.82924,0.009 -0.73122,-0.39532 0.53433,-0.83153 1.56463,-1.11978 2.47014,-1.36323 -0.11129,-0.29151 0.13105,-0.50989 0.49402,-0.59272 0.38067,-0.11004 0.56049,-0.21388 0.5333,-0.61289 0.60262,-0.31364 1.27225,-0.37955 1.93684,-0.41496 0.57417,0 1.16028,-0.2175 1.71927,-0.0594 0.23333,0.22512 0.52011,0.35791 0.84956,0.1385 0.19286,-0.11825 0.87601,-0.35405 0.65216,0.0791 -0.1271,0.25673 -0.60849,0.48523 -0.4346,0.79065 0.25357,0.13974 0.87412,-0.02 0.39481,0.39481 -0.26748,0.43442 0.44095,0.12906 0.65216,0.0791 0.7822,-0.32376 1.50193,-0.8086 2.29236,-1.12603 0.2308,-0.18338 0.7863,-0.0177 0.82993,-0.29662 -0.13469,-0.30606 0.4965,-0.53145 0.33589,-0.88935 0.55203,-0.13912 1.11406,-0.24296 1.68,-0.27647 0.51473,0.11129 1.12302,-0.0321 1.54099,0.3359 -0.4888,0.0809 -0.9958,0.0253 -1.48208,0.0987 -0.45085,0.003 -0.40294,0.45362 -0.47439,0.73122 -0.21942,0.25736 -0.69121,0.58956 -0.0987,0.65216 -0.0961,0.33514 -0.57694,0.33542 -0.67179,0.69143 -0.38067,0.1916 -0.87811,0.24289 -1.30431,0.37569 -0.35285,0.16378 -0.86225,0.13231 -1.00769,0.55345 -0.89033,0.6412 -1.91572,1.07681 -2.8851,1.58078 -0.14671,0.42557 -0.59988,0.62442 -0.9679,0.82992 -0.94852,0.55837 -1.98713,0.88757 -3.06338,1.08676 0.32503,0.27823 -0.0622,0.58264 -0.23667,0.81029 -0.41987,0.35158 -0.9666,0.5764 -1.34411,0.98805 -0.16062,0.60389 -0.31884,1.26281 -0.27647,1.89704 0.1056,0.40786 0.26571,0.78902 0.3359,1.2051 -0.0373,0.50714 0.26061,0.94271 0.37569,1.42265 0.0158,0.43505 0.36439,0.69079 0.49402,1.08727 0.043,0.36423 0.0918,0.74276 0.23668,1.08676 0.0911,0.24092 0.10764,0.84005 0.41496,0.77049 0.59883,-0.34273 1.24118,-0.67125 1.75907,-1.12654 0.36929,-0.28581 0.63952,-0.70867 0.59273,-1.18546 -0.11698,-0.40912 0.47322,-0.39419 0.73122,-0.5333 0.37814,-0.19919 0.80605,-0.0967 1.18546,-0.27699 0.41861,-0.21373 -0.24356,-0.42205 -0.25684,-0.69143 0.13089,-0.4009 0.53903,-0.6339 0.88936,-0.82992 0.5299,-0.39269 1.16477,-0.0968 1.75854,-0.17777 0.23712,-0.0645 0.76666,-0.25372 0.61237,-0.55345 -0.28519,-0.15998 -0.56118,-0.30631 -0.632,-0.6718 0.16314,-0.59756 0.69532,-0.94707 1.14618,-1.32395 0.24788,-0.22321 0.79564,-0.22383 0.35554,0.13849 -0.1271,0.32819 0.55729,0.40234 0.71158,0.15762 0.22069,-0.1897 0.18591,-0.82109 -0.19792,-0.7705 -0.38446,0.0677 -0.45614,-0.3872 -0.59273,-0.65215 0.17137,-0.35412 0.61623,-0.41632 0.84956,-0.73123 -0.21057,-0.28771 -0.63082,-0.17649 -0.94826,-0.17776 -0.36296,0.055 -1.02471,-0.0376 -0.90899,-0.5333 0.19286,-0.40913 0.67693,-0.63895 1.04748,-0.88935 0.38384,-0.18275 0.501,-0.26319 0.37517,-0.47439 0.12457,-0.18591 0.89551,-0.32272 0.39533,-0.45424 -0.20867,-0.29468 0.27457,-0.52888 0.47439,-0.67179 0.49386,-0.20171 0.27785,0.1442 0.47387,-0.0398 0.25231,-0.19097 0.58643,-0.44081 0.81029,-0.0791 0.0575,0.38193 0.52953,0.4237 0.75085,0.21756 -0.0209,-0.46225 0.55486,-0.35111 0.82993,-0.55345 0.26685,-0.29215 0.56563,-0.23028 0.90899,-0.25684 0.23586,0.0392 -0.26068,0.58897 -0.21704,0.81029 0.28139,0.11319 0.60238,-0.25752 0.88883,-0.35554 0.62854,-0.46855 1.41782,-0.43335 2.15387,-0.57309 0.58049,-0.0202 1.22664,-0.14847 1.75907,0.13798 0.2308,0.20108 0.31961,0.56549 0.69143,0.63252 0.35411,0.0493 0.61292,-0.19243 0.63252,-0.51366 0.33135,-0.30099 0.9622,-0.0779 1.22525,-0.49403 0.30542,-0.23207 0.75991,-0.23531 1.12603,-0.37569 0.28392,-0.2915 0.6251,-0.63949 1.06711,-0.57309 0.50903,0.086 0.73965,-0.5624 1.24489,-0.47387 0.4458,0.043 0.84391,-0.14995 1.20561,-0.37569 0.60515,-0.0582 1.21659,-0.19487 1.79834,-0.39533 0.42493,-0.184 0.99392,-0.14189 1.28416,-0.5333 0.0746,-0.26179 0.83673,-0.33893 0.61288,-0.0196 0.2776,0.1505 0.60736,0.083 0.90899,0.13798 0.53306,-0.0152 1.06099,0.32251 1.58078,0.13849 0.38762,-0.0468 0.51563,-0.31322 0.55294,-0.65216 -0.52801,0.15682 -0.4194,0.0113 -0.49402,-0.375678 -0.44075,-0.002 -0.57904,-0.65468 -1.04697,-0.51367 -0.4673,0.0367 0.57428,-0.24997 0.1974,-0.51366 -0.21373,-0.30036 -0.2614,-0.63061 -0.67179,-0.35553 0.28329,-0.18592 0.10484,-0.18841 -0.3359,-0.0594 -0.25673,0.004 -0.74769,-0.10069 -0.75085,-0.41496 0.0183,-0.34589 -0.57827,-0.2586 -0.7705,-0.0594 -0.21247,0.0923 -0.81779,-0.0848 -0.83044,-0.17777 0.66206,-0.0335 -0.28896,-0.60596 0.27698,-0.4346 0.3655,0.24535 0.83762,0.1443 1.22525,-0.0202 0.11445,-0.0101 0.10893,0.019 0.49403,0.17829 0.031,0.39711 0.53024,0.15695 0.79013,0.27646 0.49576,0.009 1.06221,0.0613 1.48208,-0.25683 0.36489,-0.0283 0.72098,-0.12206 1.06712,-0.25683 0.0329,-0.008 0.0506,-0.0125 0.0791,-0.0202 0.20383,-0.0549 0.3144,-0.12283 0.41496,-0.17777 0.044,-0.38508 0.25228,-0.71379 0.4346,-1.04696 0.14188,-0.35023 0.50099,-0.45285 0.85008,-0.45475 0.24805,0.0941 0.63046,0.36173 0.49402,0.69143 0.70213,0.11203 1.41338,0.0914 2.09445,-0.11834 0.51178,-0.0451 1.16442,-0.0173 1.48208,0.4346 -0.16702,0.23015 0.19054,0.5374 0.47439,0.59273 0.32294,0.23922 0.53352,0.084 0.80977,0.0594 0.34853,0.15844 0.84085,0.11839 1.06712,0.45476 0.30604,0.11894 0.70867,0.16761 1.04748,0.0987 0.24575,0.0298 0.87632,0.14052 0.59273,-0.27647 -0.32279,-0.31493 -0.15116,-0.58766 0.27647,-0.51418 0.27477,-0.0314 0.79876,0.0767 0.61288,-0.35554 -0.0452,-0.46797 -0.60654,-0.42299 -0.82992,-0.75086 0.38886,0.0202 0.73973,0.17866 1.10639,0.29663 0.459,0.001 0.94212,-0.035 1.40301,0.0393 -0.10989,-0.12775 -0.78963,-0.42046 -0.5333,-0.41496 0.30644,0.0212 0.68183,0.37863 0.92863,0.15813 0.21477,-0.24003 0.453,-0.517 0.81029,-0.39532 0.26475,0.067 0.93587,0.0606 0.37516,-0.15814 -0.84202,-0.23719 -1.64638,-0.60208 -2.43034,-0.98805 -0.51161,-0.27958 -1.07674,-0.0772 -1.62057,-0.11834 -0.5092,0.031 -0.9832,-0.3385 -1.48208,-0.19792 -0.37592,-0.0885 -0.47853,0.40073 -0.31574,0.61288 0.41807,0.10026 0.34708,0.42856 0.11834,0.49403 -0.46752,-0.0447 -0.81669,-0.34809 -1.16582,-0.63252 0.24745,-0.28427 -0.0449,-0.61913 -0.2372,-0.84956 -0.18812,-0.2778 -0.42188,-0.46225 -0.77049,-0.53382 -1.0247,-0.30287 -2.05421,-0.57816 -3.10266,-0.79013 -0.8905,-0.37615 -1.85663,-0.53546 -2.94452,-0.73123 -0.007,-0.01 -0.0307,-0.0108 -0.0393,-0.0196 -0.0417,-0.043 -0.0861,-0.0889 -0.17777,-0.0992 -0.57163,-0.35095 -1.25644,-0.30254 -1.8774,-0.49351 -0.89666,-0.30416 -1.86136,-0.19426 -2.76624,-0.47439 -1.26848,-0.23902 -2.57176,-0.10816 -3.85351,-0.0791 -0.30859,-0.0373 -0.77814,0.26307 -0.92863,-0.11886 -0.95421,-0.15176 -1.92077,-0.17281 -2.88509,-0.23668 -0.36802,-0.0708 -0.69583,-0.0365 -0.86972,0.3359 -0.53812,0.33071 0.15813,0.14243 0.35605,0.35553 0.1486,0.24472 0.65847,0.47583 0.51367,0.7705 -0.37688,0.15745 -0.86227,0.21375 -1.28468,0.27698 -0.41861,-0.001 -1.00656,0.215 -1.28416,-0.19792 -0.43252,-0.39458 -1.12035,-0.29433 -1.60094,-0.632 -0.35094,-0.13911 -0.69786,-0.57236 -1.08675,-0.31626 -0.74679,0.37814 -1.58736,0.25806 -2.39107,0.2372 -0.60262,-0.0664 -1.32792,0.14981 -1.81797,-0.29663 -0.49134,-0.2308 -1.06227,0.0696 -1.58079,0.0987 -0.61717,0.0575 -1.25206,-0.10682 -1.83761,0.15813 -0.3794,0.0234 -0.59277,0.38022 -0.94878,0.4346 -0.38067,0.1701 -0.56872,-0.32279 -0.47387,-0.632 -0.46794,-0.0854 -0.93129,-0.0354 -1.40302,-0.0992 -0.5299,-0.0847 -0.11135,-0.42204 -0.0791,-0.75086 -0.1309,-0.35727 -0.59281,-0.5485 -0.96842,-0.61236 -1.00984,-0.462247 -2.13906,-0.406097 -3.22099,-0.474387 -1.68709,-0.14544 -3.34679,0.21756 -5.01933,0.356047 -0.65321,0.005 -1.40581,0.22631 -1.95595,-0.237197 -0.26874,-0.34336 -0.67628,-0.54459 -1.10691,-0.61288 -1.01807,-0.16757 -2.0625,-0.17537 -3.06286,-0.45423 0.34589,-0.0911 0.70158,-0.18593 1.04748,-0.27699 0.57163,-0.009 0.20357,-0.29867 -0.15813,-0.31574 -1.0832,-0.24472 -2.19726,-0.21314 -3.30006,-0.21756 -0.55203,0.12647 -1.03258,0.54785 -1.60042,0.67179 -0.43126,0.0955 -0.8623,0.20373 -1.30431,0.19741 -0.41987,-0.0961 0.34098,-0.35621 0.55345,-0.37518 0.2188,0.0228 0.92472,-0.24802 0.53331,-0.41496 -0.40471,-0.0177 -0.8345,0.0867 -1.24489,0.0196 0.32755,-0.11951 0.6586,-0.25565 0.98805,-0.37517 0.12836,-0.0885 -0.62255,-0.0285 -0.84956,-0.0594 -1.29314,-0.0828 -2.58001,-0.22649 -3.87314,-0.33589 -0.54699,-0.0316 -1.13624,-0.29334 -1.64022,0.0393 -0.72466,0.41988 -1.55504,0.29352 -2.35179,0.39533 -0.39648,0.0417 -0.63484,0.40033 -0.0791,0.29662 0.25547,0.0784 0.93546,-0.31861 0.79065,0.11834 -0.21753,0.32882 0.10372,0.62313 -0.11886,0.94878 -0.49766,-0.004 -1.00977,0.0164 -1.44229,-0.27699 -0.26685,-0.0607 -0.78064,0.0368 -0.84956,0.31626 0.15303,0.17516 -0.38903,0.39094 -0.61288,0.41497 -0.49892,-0.0987 -0.96862,-0.40171 -1.48208,-0.49403 -0.77841,-0.22701 -1.60073,-0.16059 -2.37092,0.0791 -0.90678,0.29025 -1.86879,0.0865 -2.74712,-0.1974 -0.35853,-0.0209 -0.37085,-0.65326 -0.77049,-0.29662 -0.67218,0.41545 -1.10912,1.16204 -1.8774,1.442797 -0.48817,0.10055 -1.00096,-0.0848 -1.46193,-0.237187 -0.82015,-0.2991 -1.53921,-0.78391 -2.27273,-1.24489 -0.8094,-0.1878 -1.52539,-0.75649 -2.39107,-0.65215 -0.20867,-0.0588 -0.98295,0.0783 -0.77049,-0.17777 0.97949,-0.36929 2.02266,-0.64145 3.06286,-0.81029 0.49639,-0.02593 0.0335,-0.477512 -0.25684,-0.45475 -0.89666,-0.404696 -1.89983,-0.14492 -2.84581,-0.197403 -0.62285,0.07588 -1.18379,-0.236654 -1.77819,-0.355534 -0.58871,-0.182747 -1.18944,-0.04857 -1.75855,0.137975 -0.59566,-0.05691 -0.0285,0.467445 -0.31626,0.612884 -0.29783,0.128997 -0.5599,0.523198 -0.88935,0.473868 -0.69304,-0.252298 -1.41021,-0.18603 -2.13424,-0.13797 -1.22168,0.15808 -2.43201,-0.17709 -3.65559,-0.217561 -0.45213,0.04679 -0.494,-0.391699 -0.27647,-0.69143 -0.96559,0.007 -1.9233,-0.115729 -2.88509,-0.138491 -0.89666,-0.06197 -1.77393,0.0778 -2.66806,0.07906 -0.49892,-0.09485 -0.88191,0.276468 -1.30431,0.47439 -0.39016,5.29e-4 -0.33918,-0.435848 -0.47387,-0.691946 -0.4224,-0.24029 -0.93699,0.148545 -1.40302,0.09922 -0.50525,0.09485 -0.95021,-0.170063 -1.4428,-0.178284 -0.33641,-0.240289 -0.80483,-0.472493 -1.2051,-0.276468 -0.58176,0.238392 0.13541,0.194918 0.11834,0.553455 -0.82141,0.266216 -1.70312,0.30121 -2.5492,0.454234 -0.99277,0.180219 -2.00559,0.127204 -3.00343,0.256834 -0.52105,0.297197 -1.11413,0.495187 -1.71928,0.435117 0.40343,-0.21943 0.80154,-0.432738 1.20561,-0.65216 0.94345,-0.319963 1.95567,-0.491506 2.94401,-0.632518 1.54102,-0.471093 3.06146,-0.994511 4.60437,-1.462445 0.7,-0.09548 1.42034,-0.151344 2.07481,-0.454234 0.21373,-0.123939 0.9241,-0.245425 0.81029,-0.375687 -0.25232,-0.119512 -0.8892,-0.241104 -0.3359,-0.434599 0.2542,-0.18591 0.80256,-0.330261 0.3359,-0.632521 -0.28583,-0.0822 -0.64466,0.04679 -0.96842,0 -0.26558,-0.165039 -0.5309,-0.394796 -0.8692,-0.454234 -1.00416,-0.31554 -2.07577,-0.373872 -3.12229,-0.355534 -0.67155,-0.146704 -1.37098,0.0045 -2.05517,-0.02016 -0.40154,-0.08031 -0.73134,0.154416 -1.06712,0.335896 -0.43758,-0.05754 -0.93761,-0.0045 -1.40301,-0.01963 -0.41988,0.07462 -0.7349,-0.06333 -0.19741,-0.256834 0.22575,-0.114453 0.79765,-0.228488 0.75086,-0.454234 -0.59377,-0.0664 -1.22993,0.08861 -1.83761,-0.02016 -0.6532,-0.151127 -1.34187,0.159245 -1.97611,-0.05891 0.33704,-0.21879 0.74346,-0.318215 1.12603,-0.414962 0.55962,-0.05501 0.0455,-0.376322 -0.25683,-0.375687 -0.35158,-0.0019 -0.71309,-0.02909 -1.06712,-0.03928 z m -50.922977,0.928624 c -0.62143,0.01003 -1.25518,0.07926 -1.87741,0.0987 -0.45845,-0.06007 -0.83131,0.192998 -1.16582,0.47439 -0.85809,0.03731 -1.71644,0.132226 -2.56883,0.237194 -0.91247,-0.04806 -1.79929,0.413081 -2.70733,0.157615 -0.40976,-0.142277 -0.81486,0.01265 -1.22525,0 -0.27317,0.223216 -0.53464,0.451591 -0.90899,0.454753 -1.17742,-0.05312 -2.403509,0.05841 -3.49746,0.533299 -0.33767,0.189071 -0.658625,0.415539 -1.067118,0.316262 -0.431258,-0.139115 -0.807916,0.172074 -1.16582,0.375687 -0.534329,0.192865 -0.271846,0.292275 0.0987,0.47439 -0.476153,0.187171 -1.062252,-0.0029 -1.442289,0.394806 0.373713,0.02024 0.64824,0.49013 0.118337,0.435115 -0.639929,-0.04363 -1.272968,0.04636 -1.85725,0.315743 -0.459079,0.123942 -0.62288,0.263832 -0.07907,0.414962 0.369922,0.275701 0.796603,0.05311 1.205095,0.05943 0.842913,-0.107497 1.677729,0.03994 2.490288,0.256834 0.373081,-0.09928 0.708628,-0.260776 1.027327,-0.473874 0.488169,-0.230172 -0.122786,-0.455454 -0.395325,-0.494027 0.306687,-0.24851 0.699696,-0.194117 1.047483,-0.05943 0.310478,-0.04426 0.650393,-0.193654 0.928624,-0.355534 0.06639,-0.114454 -0.611521,-0.346655 0.03979,-0.47439 0.730358,-0.01074 1.520968,0.174529 2.193148,-0.197919 0.70696,-0.187807 -0.31622,-0.189884 0.0398,-0.4346 0.61274,-0.232068 1.32479,-0.215717 1.97611,-0.316259 2.37191,-0.445801 4.76849,-0.628332 7.15305,-0.967901 0.88148,-0.174527 1.83973,-0.21323 2.62826,-0.672309 0.44643,-0.158718 -0.11453,-0.525714 -0.37569,-0.533302 -0.20535,-0.01249 -0.40522,-0.02297 -0.61236,-0.01963 z m -17.527614,5.098399 c -0.394973,0.01035 -0.791395,0.04401 -1.185976,0.03927 -0.572268,0.111926 -1.152097,0.208753 -1.738911,0.177768 -0.429784,0.163431 -0.823037,0.439786 -1.28416,0.553456 0.20488,0.15556 0.967729,0.0349 0.671795,0.3359 -0.423037,0.32692 -0.899062,0.74887 -1.482082,0.63252 -0.314272,-0.19097 -0.943089,0.0937 -0.750858,0.49402 0.31048,0.41925 0.965435,0.38897 1.403016,0.17777 0.644988,-0.0247 1.296985,0.1424 1.916679,0.3359 0.186539,0.0923 0.895596,0.145 0.513662,0.37517 -0.236492,0.15049 -0.864126,0.0254 -0.730702,0.43511 0.412916,0.122047 0.830699,-0.004 1.244883,0.0196 0.323128,0.0696 0.52832,0.456017 0.908989,0.256827 0.689253,-0.347147 1.471049,-0.20752 2.212785,-0.19741 0.317436,0.11319 0.906269,-0.0923 0.335896,-0.257337 -0.672179,-0.1916 -1.331074,-0.46827 -1.817976,-0.98806 -0.196657,-0.26621 -0.38845,-0.62264 -0.375171,-0.9679 -0.110659,-0.44833 0.370223,-0.74699 0.770496,-0.71158 0.251671,0.004 0.698891,-0.417538 0.553455,-0.573094 -0.382884,-0.137218 -0.770848,-0.148331 -1.16582,-0.137975 z M 31.121277,110.79532 c -0.3617,0.10307 -0.10693,0.28161 -0.23719,0.59272 -0.52927,0.1037 -1.10019,-0.0354 -1.64021,-0.0196 -0.2972,0.16504 -0.23212,0.55032 0.0398,0.4346 0.5533,-0.0967 0.38388,0.0203 -0.0398,0.17777 1.09015,0.0145 2.17189,0.10864 3.26078,0.0202 0.4281,0.0259 0.58637,0.0201 0.57309,-0.41497 0.39016,-0.22953 -0.11013,-0.3353 -0.25683,-0.49402 -0.31807,-0.005 -0.63329,0.0708 -0.90899,-0.0398 -0.29151,-0.0259 -0.60727,-0.17843 -0.79065,-0.25683 z m 170.534283,2.4107 c -0.16742,0.0873 -0.3286,0.18916 -0.49351,0.27699 -0.24535,0.21879 -0.7698,-0.0808 -0.86971,0.27647 0.35285,0.30542 0.15989,0.80724 -0.0393,1.14618 -0.15429,0.24914 -0.11124,0.66558 0.0987,0.8692 0.36044,0.28771 0.58953,0.69334 0.57309,1.16633 -0.18654,0.90678 0.053,1.85624 -0.31626,2.72697 -0.4496,0.15492 -0.10171,0.55042 0.0196,0.82992 0.14544,0.29846 0.18645,0.65357 -0.11834,0.8692 -0.30162,0.28582 -0.0662,0.62574 0.0786,0.92863 -0.15809,0.35601 -0.53635,0.69461 -0.33589,1.1069 0.0247,0.32755 0.36938,0.74497 0.51418,0.2372 0.25673,-0.28202 0.3962,-0.89756 0.8692,-0.81029 0.36803,0.0537 0.60281,0.25699 0.71158,0.61237 0.19729,0.60578 0.27143,0.0606 0.35553,-0.27647 0.079,-0.32566 -0.27656,-0.63452 -0.59273,-0.69143 -0.26748,-0.39078 -0.63705,-0.73139 -0.69143,-1.22525 -0.0335,-0.49449 0.14683,-1.00399 0.3359,-1.46244 0.062,-0.31743 0.3114,-0.54587 0.632,-0.55346 0.71138,-0.0639 1.29063,0.42324 1.89704,0.71159 -0.26621,-0.41798 -0.56493,-0.813 -0.81028,-1.24489 -0.39205,-0.60705 -0.62698,-1.29762 -0.98806,-1.91668 -0.48247,-0.53306 -0.59766,-1.3444 -0.25683,-1.9761 0.29025,-0.58302 -0.16017,-1.20446 -0.57309,-1.60094 z"
       sodipodi:nodetypes="scccccccccccccccccccccccccccccccccccccccccccccccccccccccccccccccccccccccccccccccccccccccccccccccccccccccccccccccccccccccccccccccccccccccccccccccccccccccccccccccccccccccccccccccccccccccccccccccccccccccccccccccccccccccccccccccccccccccccccccccccccccccccccccccccccccccccccccccccccccccccccccccccccccccccccccccccccccccccccccccccccccccccccccccccccccccccccccccccccccccccccccccccccccccccccccccccccccccccccccccccccccccccccccccccccccccccccccccccccccccccccccccccccccccccccccccccccccccccccccccccccccccccccccccccccccccccccccccccccccccccccccccccccccccccccccccccccccccccccccccccccccccccccccccccccccccccccccccccccccccccccccccccccccccccccccccccccscccccccccccccccccccccccccccccccccccccccccccccccccccccccccccccccccccccccccccccccccccccccccccccccsscccccccccccccccccccccccccccssccccccccccccccccccscccccccccccccccccccccccccccccccccc" />
  </g>
</svg>
